<?xml version="1.0" encoding="UTF-8"?>
<svg id="LOGO_MARGE" data-name="LOGO MARGE" xmlns="http://www.w3.org/2000/svg" viewBox="0 0 1920 516.59">
  <defs>
    <style>
      .cls-1 {
        fill: #f58220;
      }

      .cls-1, .cls-2, .cls-3 {
        stroke-width: 0px;
      }

      .cls-2 {
        fill: #003680;
      }

      .cls-3 {
        fill: none;
      }
    </style>
  </defs>
  <rect id="marge" class="cls-3" width="1920" height="516.59"/>
  <g id="LOGO">
    <path id="Sourire" class="cls-1" d="M102.09,277.27c9.41,38.22,22.44,71.55,62.11,94.91,51.42,30.28,117.75,22.31,160.62-2.94,0,0,8.55-4.79,10.51,1.01.76,2.24-5.21,9.4-5.21,9.4-41.97,40.63-144.19,52.35-202.36,18.1-46.73-27.51-75.55-69.04-76.28-116.27,0,0-.33-23.04,19.23-27.15,30.64-6.43,31.38,22.95,31.38,22.95"/>
    <g id="PROMAN">
      <path class="cls-2" d="M472.74,228.14h8.59c8.78,0,15.94,1.11,21.48,3.35,5.54,2.25,11.24,7.37,17.09,15.36,5.85,7.99,12.44,20.62,19.75,37.89l19.93,47.2h82.09l-25.59-57.76c-9.16-20.85-16.37-34.7-21.67-41.55-5.3-6.84-12.03-12.76-20.2-17.74,6.83-3.84,12.98-7.86,18.46-12.08,5.49-4.22,10.7-10.97,15.64-20.24,4.93-9.28,7.4-20.63,7.4-34.06,0-11.52-2.96-23.67-8.87-36.46-5.91-12.78-15.58-23.66-28.99-32.61-13.4-8.96-30.6-13.44-51.56-13.44h-129.99v265.95h76.43v-103.8ZM472.74,117.03h16.09c17.31,0,29.8,2.43,37.48,7.29,7.68,4.87,11.52,13.43,11.52,25.71s-3.44,20.38-10.32,24.66c-6.9,4.29-19.66,6.43-38.32,6.43h-16.45v-64.09Z"/>
      <polygon class="cls-2" points="1017.38 177.86 1086.5 267.1 1092.53 267.1 1161.47 177.86 1161.47 331.95 1237.89 331.95 1237.89 65.99 1168.6 65.99 1090.34 165.77 1012.46 65.99 943.16 65.99 943.16 331.95 1017.38 331.95 1017.38 177.86"/>
      <path class="cls-2" d="M1360.77,277.98h110.04l20.67,53.91h78.24l-111.69-265.9h-84.46l-112.05,265.9h78.23l21.03-53.91ZM1416.17,134.68l37.11,97.07h-74.58l37.48-97.07Z"/>
      <path class="cls-2" d="M352.28,200.2c7.16-7.85,12.36-16.33,15.59-25.42,3.22-9.09,4.82-18.39,4.82-27.92s-1.61-19.11-4.82-28.38c-3.23-9.28-8.43-17.87-15.59-25.78-7.16-7.91-16.86-14.35-29.06-19.29-12.22-4.94-26.58-7.42-43.1-7.42h-126.13v194.24c1.18,39.81,34.72,71.72,75.95,71.72h.23v-105.32h49.95c7.71,0,14.94-.55,21.71-1.62,7.74-1.22,14.88-3.11,21.38-5.71,12.21-4.88,21.9-11.25,29.06-19.1M290.5,165.97c-3.04,4.33-7.96,7.31-14.77,8.91-6.49,1.54-15.65,2.32-27.44,2.4-.58,0-1.13.02-1.73.02h-16.4v-61.96h16.05c18.34,0,31.06,2.26,38.18,6.78,7.11,4.52,10.67,12.89,10.67,25.13,0,8.16-1.53,14.4-4.56,18.73"/>
      <polygon class="cls-2" points="1868.53 65.99 1868.53 331.95 1800.5 331.95 1669.03 183.81 1669.03 331.95 1593.34 331.95 1593.34 65.99 1661.18 65.99 1792.28 213.36 1792.28 65.99 1868.53 65.99"/>
      <path class="cls-2" d="M701.92,313.27c21.13,12.47,46.94,18.69,77.46,18.69s55.74-5.98,76.77-17.94c21-11.96,36.83-28.09,47.46-48.4,10.63-20.32,15.94-42.56,15.94-66.74,0-17.82-2.97-34.79-8.9-50.93-5.95-16.13-14.67-30.28-26.18-42.43-11.52-12.15-26.21-21.77-44.07-28.88-17.87-7.1-38.2-10.65-61-10.65-30.52,0-56.37,6.19-77.56,18.6-21.19,12.4-36.89,28.72-47.1,48.96-10.21,20.26-15.31,42.03-15.31,65.33s5.14,44.93,15.4,65.23c10.27,20.32,25.98,36.7,47.11,49.16M732.36,150.85c11.4-12.21,27.07-18.32,47.02-18.32,10.45,0,19.65,1.65,27.6,4.95,7.96,3.3,14.7,7.91,20.22,13.83,5.51,5.92,9.64,12.9,12.38,20.93,2.73,8.04,4.09,16.92,4.09,26.63,0,12.96-2.49,24.46-7.48,34.49-4.98,10.03-12.29,17.88-21.91,23.55-9.61,5.67-21.25,8.5-34.9,8.5-19.83,0-35.47-6.13-46.93-18.42-11.45-12.27-17.18-28.31-17.18-48.13s5.69-35.81,17.09-48.03"/>
    </g>
    <g id="baseline">
      <g>
        <path class="cls-1" d="M405.39,384.06c-2.65,0-4.82-.79-6.52-2.38-1.7-1.59-2.55-3.59-2.55-6.01s.85-4.41,2.55-5.96c1.7-1.55,3.87-2.33,6.52-2.33s4.83.78,6.52,2.33c1.7,1.55,2.55,3.54,2.55,5.96s-.85,4.43-2.55,6.01c-1.7,1.59-3.88,2.38-6.52,2.38ZM398.12,449.09v-56.29h14.53v56.29h-14.53Z"/>
        <path class="cls-1" d="M427.86,449.09v-56.29h12.83l1.13,9.53c1.74-3.33,4.26-5.98,7.55-7.94,3.29-1.97,7.17-2.95,11.63-2.95,6.96,0,12.37,2.2,16.23,6.58,3.86,4.39,5.79,10.82,5.79,19.29v31.78h-14.52v-30.42c0-4.84-.98-8.55-2.95-11.12-1.97-2.57-5.03-3.86-9.19-3.86s-7.43,1.44-10.04,4.31c-2.61,2.88-3.92,6.89-3.92,12.03v29.05h-14.53Z"/>
        <path class="cls-1" d="M521.94,449.09c-5.9,0-10.63-1.44-14.19-4.31-3.56-2.87-5.33-7.98-5.33-15.32v-24.51h-9.65v-12.14h9.65l1.7-15.1h12.82v15.1h15.21v12.14h-15.21v24.63c0,2.72.59,4.6,1.76,5.62,1.17,1.02,3.2,1.53,6.07,1.53h7.04v12.37h-9.87Z"/>
        <path class="cls-1" d="M570.51,450.45c-5.68,0-10.7-1.21-15.09-3.63-4.39-2.42-7.83-5.83-10.33-10.21-2.49-4.39-3.75-9.46-3.75-15.21s1.23-11.01,3.69-15.55c2.46-4.54,5.86-8.07,10.21-10.61,4.35-2.53,9.48-3.8,15.38-3.8,5.52,0,10.4,1.21,14.64,3.63,4.24,2.42,7.55,5.73,9.93,9.93,2.38,4.2,3.57,8.87,3.57,14.02,0,.83-.02,1.7-.06,2.61-.04.91-.09,1.86-.17,2.84h-42.79c.3,4.39,1.83,7.83,4.6,10.33,2.76,2.5,6.11,3.75,10.04,3.75,2.95,0,5.43-.66,7.43-1.99,2-1.32,3.5-3.05,4.48-5.17h14.75c-1.06,3.56-2.82,6.79-5.28,9.7-2.46,2.91-5.49,5.2-9.08,6.86-3.59,1.66-7.66,2.5-12.2,2.5ZM570.63,403.24c-3.56,0-6.7,1-9.42,3.01-2.72,2.01-4.47,5.05-5.22,9.14h28.03c-.23-3.71-1.59-6.66-4.09-8.85-2.5-2.19-5.6-3.29-9.3-3.29ZM566.54,387.01v-10.21l25.65-8.4v11.8l-25.65,6.81Z"/>
        <path class="cls-1" d="M611.02,449.09v-56.29h12.94l1.36,10.55c2.04-3.63,4.82-6.52,8.34-8.68,3.52-2.16,7.66-3.23,12.43-3.23v15.32h-4.08c-3.18,0-6.02.49-8.52,1.48-2.49.99-4.44,2.69-5.84,5.11-1.4,2.42-2.1,5.79-2.1,10.1v25.65h-14.53Z"/>
        <path class="cls-1" d="M663.8,384.06c-2.65,0-4.82-.79-6.52-2.38-1.7-1.59-2.55-3.59-2.55-6.01s.85-4.41,2.55-5.96c1.7-1.55,3.87-2.33,6.52-2.33s4.83.78,6.52,2.33c1.7,1.55,2.55,3.54,2.55,5.96s-.85,4.43-2.55,6.01c-1.7,1.59-3.88,2.38-6.52,2.38ZM656.53,449.09v-56.29h14.53v56.29h-14.53Z"/>
        <path class="cls-1" d="M686.27,449.09v-56.29h12.83l1.25,7.6c1.81-2.72,4.22-4.9,7.2-6.52,2.99-1.63,6.45-2.44,10.39-2.44,8.7,0,14.87,3.37,18.5,10.1,2.04-3.1,4.78-5.56,8.23-7.38,3.44-1.81,7.2-2.72,11.29-2.72,7.34,0,12.98,2.2,16.91,6.58,3.93,4.39,5.9,10.82,5.9,19.29v31.78h-14.53v-30.42c0-4.84-.93-8.55-2.78-11.12-1.86-2.57-4.71-3.86-8.57-3.86s-7.09,1.44-9.48,4.31c-2.38,2.88-3.57,6.89-3.57,12.03v29.05h-14.52v-30.42c0-4.84-.95-8.55-2.84-11.12-1.89-2.57-4.8-3.86-8.74-3.86s-6.98,1.44-9.36,4.31c-2.38,2.88-3.57,6.89-3.57,12.03v29.05h-14.53Z"/>
      </g>
      <g>
        <path class="cls-1" d="M883.23,449.09v-56.29h12.94l1.36,10.55c2.04-3.63,4.82-6.52,8.34-8.68,3.52-2.16,7.66-3.23,12.43-3.23v15.32h-4.08c-3.18,0-6.02.49-8.52,1.48-2.49.99-4.44,2.69-5.84,5.11-1.4,2.42-2.1,5.79-2.1,10.1v25.65h-14.53Z"/>
        <path class="cls-1" d="M954.51,450.45c-5.68,0-10.7-1.21-15.09-3.63-4.39-2.42-7.83-5.83-10.33-10.21-2.49-4.39-3.75-9.46-3.75-15.21s1.23-11.01,3.69-15.55c2.46-4.54,5.86-8.07,10.21-10.61,4.35-2.53,9.48-3.8,15.38-3.8,5.52,0,10.4,1.21,14.64,3.63,4.24,2.42,7.55,5.73,9.93,9.93,2.38,4.2,3.57,8.87,3.57,14.02,0,.83-.02,1.7-.06,2.61-.04.91-.09,1.86-.17,2.84h-42.79c.3,4.39,1.83,7.83,4.6,10.33,2.76,2.5,6.11,3.75,10.04,3.75,2.95,0,5.43-.66,7.43-1.99,2-1.32,3.5-3.05,4.48-5.17h14.75c-1.06,3.56-2.82,6.79-5.28,9.7-2.46,2.91-5.49,5.2-9.08,6.86-3.59,1.66-7.66,2.5-12.2,2.5ZM954.62,403.24c-3.56,0-6.7,1-9.42,3.01-2.72,2.01-4.47,5.05-5.22,9.14h28.03c-.23-3.71-1.59-6.66-4.09-8.85-2.5-2.19-5.6-3.29-9.3-3.29Z"/>
        <path class="cls-1" d="M1022.6,450.45c-5.75,0-10.82-1.25-15.21-3.75-4.39-2.5-7.85-5.98-10.38-10.44-2.54-4.46-3.81-9.57-3.81-15.32s1.27-10.85,3.81-15.32c2.53-4.46,5.99-7.94,10.38-10.44,4.39-2.5,9.46-3.75,15.21-3.75,7.19,0,13.24,1.87,18.16,5.62,4.91,3.75,8.05,8.91,9.42,15.49h-15.32c-.76-2.72-2.25-4.86-4.48-6.41-2.24-1.55-4.86-2.33-7.89-2.33-4.01,0-7.42,1.51-10.21,4.54-2.8,3.03-4.2,7.23-4.2,12.6s1.4,9.57,4.2,12.6c2.8,3.03,6.2,4.54,10.21,4.54,3.02,0,5.65-.76,7.89-2.27,2.23-1.51,3.73-3.67,4.48-6.47h15.32c-1.36,6.35-4.5,11.46-9.42,15.32-4.92,3.86-10.97,5.79-18.16,5.79Z"/>
        <path class="cls-1" d="M1063.11,449.09v-56.29h12.94l1.36,10.55c2.04-3.63,4.82-6.52,8.34-8.68,3.52-2.16,7.66-3.23,12.43-3.23v15.32h-4.08c-3.18,0-6.02.49-8.52,1.48-2.49.99-4.44,2.69-5.84,5.11-1.4,2.42-2.1,5.79-2.1,10.1v25.65h-14.53Z"/>
        <path class="cls-1" d="M1129.16,450.45c-7.04,0-12.47-2.19-16.29-6.58-3.82-4.39-5.73-10.82-5.73-19.29v-31.78h14.41v30.41c0,4.84.98,8.55,2.95,11.12,1.97,2.57,5.07,3.86,9.3,3.86,4.01,0,7.32-1.44,9.93-4.31,2.61-2.87,3.91-6.89,3.91-12.03v-29.05h14.53v56.29h-12.82l-1.14-9.53c-1.74,3.33-4.25,5.98-7.55,7.94-3.29,1.97-7.13,2.95-11.52,2.95Z"/>
        <path class="cls-1" d="M1202.13,449.09c-5.9,0-10.63-1.44-14.19-4.31-3.56-2.87-5.33-7.98-5.33-15.32v-24.51h-8v-12.14h8l1.7-15.1h12.82v15.1h15.21v12.14h-15.21v24.63c0,2.72.59,4.6,1.76,5.62,1.17,1.02,3.2,1.53,6.07,1.53h7.04v12.37h-9.87Z"/>
        <path class="cls-1" d="M1250.7,450.45c-5.68,0-10.7-1.21-15.09-3.63-4.39-2.42-7.83-5.83-10.33-10.21-2.49-4.39-3.75-9.46-3.75-15.21s1.23-11.01,3.69-15.55c2.46-4.54,5.86-8.07,10.21-10.61,4.35-2.53,9.48-3.8,15.38-3.8,5.52,0,10.4,1.21,14.64,3.63,4.24,2.42,7.55,5.73,9.93,9.93,2.38,4.2,3.57,8.87,3.57,14.02,0,.83-.02,1.7-.06,2.61-.04.91-.09,1.86-.17,2.84h-42.79c.3,4.39,1.83,7.83,4.6,10.33,2.76,2.5,6.11,3.75,10.04,3.75,2.95,0,5.43-.66,7.43-1.99,2-1.32,3.5-3.05,4.48-5.17h14.75c-1.06,3.56-2.82,6.79-5.28,9.7-2.46,2.91-5.49,5.2-9.08,6.86-3.59,1.66-7.66,2.5-12.2,2.5ZM1250.82,403.24c-3.56,0-6.7,1-9.42,3.01-2.72,2.01-4.47,5.05-5.22,9.14h28.03c-.23-3.71-1.59-6.66-4.09-8.85-2.5-2.19-5.6-3.29-9.3-3.29Z"/>
        <path class="cls-1" d="M1291.21,449.09v-56.29h12.83l1.25,7.6c1.81-2.72,4.22-4.9,7.2-6.52,2.99-1.63,6.45-2.44,10.39-2.44,8.7,0,14.87,3.37,18.5,10.1,2.04-3.1,4.78-5.56,8.23-7.38,3.44-1.81,7.2-2.72,11.29-2.72,7.34,0,12.98,2.2,16.91,6.58,3.93,4.39,5.9,10.82,5.9,19.29v31.78h-14.53v-30.42c0-4.84-.93-8.55-2.78-11.12-1.86-2.57-4.71-3.86-8.57-3.86s-7.09,1.44-9.48,4.31c-2.38,2.88-3.57,6.89-3.57,12.03v29.05h-14.52v-30.42c0-4.84-.95-8.55-2.84-11.12-1.89-2.57-4.8-3.86-8.74-3.86s-6.98,1.44-9.36,4.31c-2.38,2.88-3.57,6.89-3.57,12.03v29.05h-14.53Z"/>
        <path class="cls-1" d="M1424.91,450.45c-5.68,0-10.7-1.21-15.09-3.63-4.39-2.42-7.83-5.83-10.33-10.21-2.49-4.39-3.75-9.46-3.75-15.21s1.23-11.01,3.69-15.55c2.46-4.54,5.86-8.07,10.21-10.61,4.35-2.53,9.48-3.8,15.38-3.8,5.52,0,10.4,1.21,14.64,3.63,4.24,2.42,7.55,5.73,9.93,9.93,2.38,4.2,3.57,8.87,3.57,14.02,0,.83-.02,1.7-.06,2.61s-.09,1.86-.17,2.84h-42.79c.3,4.39,1.83,7.83,4.6,10.33,2.76,2.5,6.11,3.75,10.04,3.75,2.95,0,5.43-.66,7.43-1.99,2-1.32,3.5-3.05,4.48-5.17h14.75c-1.06,3.56-2.82,6.79-5.28,9.7-2.46,2.91-5.49,5.2-9.08,6.86-3.59,1.66-7.66,2.5-12.2,2.5ZM1425.02,403.24c-3.56,0-6.7,1-9.42,3.01-2.72,2.01-4.47,5.05-5.22,9.14h28.03c-.23-3.71-1.59-6.66-4.09-8.85-2.5-2.19-5.6-3.29-9.3-3.29Z"/>
        <path class="cls-1" d="M1465.42,449.09v-56.29h12.83l1.13,9.53c1.74-3.33,4.26-5.98,7.55-7.94,3.29-1.97,7.17-2.95,11.63-2.95,6.96,0,12.37,2.2,16.23,6.58,3.86,4.39,5.79,10.82,5.79,19.29v31.78h-14.52v-30.42c0-4.84-.98-8.55-2.95-11.12-1.97-2.57-5.03-3.86-9.19-3.86s-7.43,1.44-10.04,4.31c-2.61,2.88-3.92,6.89-3.92,12.03v29.05h-14.53Z"/>
        <path class="cls-1" d="M1559.5,449.09c-5.9,0-10.63-1.44-14.19-4.31-3.56-2.87-5.33-7.98-5.33-15.32v-24.51h-9.65v-12.14h9.65l1.7-15.1h12.82v15.1h15.21v12.14h-15.21v24.63c0,2.72.59,4.6,1.76,5.62,1.17,1.02,3.2,1.53,6.07,1.53h7.38v12.37h-10.21Z"/>
      </g>
      <circle class="cls-1" cx="831" cy="432.24" r="16.85"/>
    </g>
  </g>
</svg>